<?xml version="1.0" standalone="no"?><!DOCTYPE svg PUBLIC "-//W3C//DTD SVG 1.1//EN" "http://www.w3.org/Graphics/SVG/1.1/DTD/svg11.dtd"><svg t="1590647140744" class="icon" viewBox="0 0 1024 1024" version="1.1" xmlns="http://www.w3.org/2000/svg" p-id="4885" xmlns:xlink="http://www.w3.org/1999/xlink" width="200" height="200"><defs><style type="text/css"></style></defs><path d="M512 919.3c-19.8 0-36-16.2-36-36v-207h72v207c0 19.8-16.2 36-36 36z" fill="#FFCAC7" p-id="4886"></path><path d="M692 707.8H332v-423c0-99.4 80.6-180 180-180s180 80.6 180 180v423z" fill="#FFD991" p-id="4887"></path><path d="M692 413s-31.5-45-90-45-118.1 90-180 90-90-45-90-45V284.8c0-99.4 80.6-180 180-180s180 80.6 180 180V413z" fill="#F3796D" p-id="4888"></path><path d="M463.35 183.477l24.113-24.112 12.728 12.727-24.112 24.113zM489.006 272.141l24.112-24.112 12.728 12.728-24.113 24.112zM577.39 202.595l12.729-12.726 24.108 24.116-12.73 12.726zM598.924 307.624l12.726-12.73 24.115 24.109-12.726 12.73zM382.092 260.8l12.73-12.725 24.109 24.115-12.73 12.726zM398.783 381.195l12.73-12.726 24.108 24.116-12.73 12.726zM493.524 358.833l24.112-24.112 12.728 12.728-24.112 24.112z" fill="#384D68" p-id="4889"></path><path d="M512 95.8c-104.2 0-189 84.8-189 189v432h144v166.5c0 24.8 20.2 45 45 45s45-20.2 45-45V716.8h144v-432c0-104.3-84.8-189-189-189z m-171 189c0-94.3 76.7-171 171-171s171 76.7 171 171v105.5c-15.9-14-43.1-31.2-81-31.2-31.8 0-62.9 23.3-92.9 45.9-28.9 21.6-58.7 44-87.1 44-49.3 0-75-30.6-81-38.8V284.8z m198 598.5c0 14.9-12.1 27-27 27s-27-12.1-27-27V716.8h54v166.5zM341 698.8V436.6c14.2 12.8 37.8 27.7 72 30v140.7h38.3v-18H431V466.4c31-3.7 60.4-25.7 88.9-47.1 25.9-19.4 50.4-37.8 73.8-41.5v228.4H632v-18h-20.3V377.5c40.2 3.9 64.9 30.9 71.3 38.6v282.7H341z" fill="#384D68" p-id="4890"></path></svg>